# xmcd
#
# Track frame offsets:
#	150
#	16207
#	32315
#	48219
#	62913
#	81490
#	97982
#	120539
#	137650
#	154815
#	172435
#
# Disc length: 2520 seconds
#
# Revision: 0
# Processed by: cddbd v1.5.2PL0 Copyright (c) Steve Scherf et al.
# Submitted via: EasyCDDAExtractor 15.3.0.1
#
DISCID=8b09d60b
DTITLE=Olga Tañon - Olga Tañon Y Punto.
DYEAR=2017
DGENRE=Latin
TTITLE0=La Gran Fiesta
TTITLE1=Asi Es El Amor (Olga Tañon and Wisin)
TTITLE2=Esta Vida
TTITLE3=Que Me Quiten Lo Bailao
TTITLE4=Vuelve A Mi (Olga Tañon and Fernandito Villalona)
TTITLE5=Vivo La Vida
TTITLE6=Miro Pal Cielo (Olga Tañon and Pirulo)
TTITLE7=El Mundo No Se Acaba Por Eso
TTITLE8=Lo Que Esta Pa Ti
TTITLE9=Decirte Que No
TTITLE10=Hallelujah (Olga Tañon and Gabriella Denizard Tañon)
EXTD=
EXTT0=
EXTT1=
EXTT2=
EXTT3=
EXTT4=
EXTT5=
EXTT6=
EXTT7=
EXTT8=
EXTT9=
EXTT10=
PLAYORDER=
